Coordinates
version=1
nRows=19
nColumns=18
inDegrees=yes

Units are S.I. units (second, meters, Newtons, ...)
If the header above contains a line with 'inDegrees', this indicates whether rotational values are in degrees (yes) or radians (no).

endheader
time	ground_thorax_rot_x	ground_thorax_rot_y	ground_thorax_rot_z	ground_thorax_tx	ground_thorax_ty	ground_thorax_tz	clav_prot	clav_elev	scapula_abduction	scapula_elevation	scapula_upward_rot	scapula_winging	plane_elv	shoulder_elv	axial_rot	elbow_flexion	pro_sup
      1.93000000	     -0.84776303	     -1.06508822	     -8.32751506	     -0.00440907	      0.00576644	     -0.00743628	    -23.22052435	     -2.12474406	     -6.13078362	     -5.39774254	     25.58120498	      1.59285140	     61.64957153	     44.88546770	    -19.84555183	      0.00000000	     34.32000000
      1.94000000	     -0.98049921	     -1.01165161	     -8.33908231	     -0.00435355	      0.00583282	     -0.00785815	    -23.29296726	     -1.83999504	     -6.03725755	     -5.27829808	     26.00495521	      1.39893872	     62.22540266	     45.74509270	    -19.92103611	      0.00000000	     34.32000000
      1.95000000	     -0.92345089	     -0.85387137	     -8.24966151	     -0.00439740	      0.00575815	     -0.00789583	    -23.49885909	     -1.17978967	     -6.10417304	     -4.93913072	     26.67564960	      1.02827755	     62.82033090	     46.45073254	    -20.26204790	      0.00000000	     34.32000000
      1.96000000	     -0.93820394	     -0.77947656	     -8.21116293	     -0.00463853	      0.00591215	     -0.00772120	    -23.62763532	     -1.03011347	     -6.01952280	     -4.93603508	     27.17069884	      0.86505817	     62.54042003	     47.04989484	    -20.29076889	      0.00000000	     34.32000000
      1.97000000	     -0.88429216	     -1.40245976	     -8.19343759	     -0.00469656	      0.00580138	     -0.00715533	    -23.18831240	     -0.84188756	     -4.95682081	     -4.86891702	     27.66275344	      0.68803903	     61.71951579	     47.60838209	    -20.80035476	      0.00000000	     34.32000000
      1.98000000	     -0.85014680	     -1.49579735	     -8.18219842	     -0.00482044	      0.00577737	     -0.00693699	    -23.13765224	     -0.79498751	     -4.77797370	     -4.86000109	     27.80774702	      0.63897593	     61.36372430	     48.26183352	    -20.83396551	      0.00000000	     34.32000000
      1.99000000	     -0.93771820	     -1.55080920	     -8.25090988	     -0.00471716	      0.00574917	     -0.00716092	    -23.14530507	     -0.74800084	     -4.70829020	     -4.85230027	     27.94209844	      0.59326546	     61.57311755	     49.00976320	    -20.75803000	      0.00000000	     34.32000000
      2.00000000	     -1.17915395	     -1.70251383	     -8.27776663	     -0.00456393	      0.00575060	     -0.00752421	    -23.14423267	     -0.66602303	     -4.60814464	     -4.82505934	     28.11110331	      0.52861966	     62.25397398	     49.81166180	    -20.66700798	      0.00000000	     34.32000000
      2.01000000	     -1.31579949	     -1.80051707	     -8.31953025	     -0.00455329	      0.00571732	     -0.00774500	    -23.19459480	     -0.47577821	     -4.46563111	     -4.76500753	     28.50557230	      0.37940289	     62.95135500	     50.59452823	    -20.49855169	      0.00000000	     34.32000000
      2.02000000	     -1.33702041	     -1.81795248	     -8.30884774	     -0.00467393	      0.00566871	     -0.00772278	    -23.24920426	     -0.22405972	     -4.19234136	     -4.70040359	     29.11350055	      0.16331668	     63.20650548	     51.10960587	    -20.21217244	      0.00000000	     34.32000000
      2.03000000	     -1.34413657	     -1.67699622	     -8.25038908	     -0.00486961	      0.00574464	     -0.00767824	    -23.33654961	     -0.11158323	     -4.02514864	     -4.71483429	     29.59711007	      0.01961232	     62.86620672	     51.59492034	    -20.05391843	      0.00000000	     34.32000000
      2.04000000	     -1.34836772	     -1.61816207	     -8.24389938	     -0.00495950	      0.00578098	     -0.00762703	    -23.40959915	      0.07253111	     -3.86853781	     -4.67064205	     30.05761266	     -0.13998665	     62.48639419	     52.15643352	    -19.91927727	      0.00000000	     34.32000000
      2.05000000	     -1.39003010	     -1.71135386	     -8.24865325	     -0.00500426	      0.00580849	     -0.00764982	    -23.42397686	      0.32455784	     -3.63958028	     -4.56948448	     30.50167904	     -0.31512087	     62.32917127	     52.79988687	    -19.81435831	      0.00000000	     34.32000000
      2.06000000	     -1.49179171	     -1.96192326	     -8.26012407	     -0.00491642	      0.00574131	     -0.00769155	    -23.41629615	      0.52577236	     -3.31933933	     -4.51244235	     30.99565539	     -0.48509181	     62.53237527	     53.45311318	    -19.74575928	      0.00000000	     34.32000000
      2.07000000	     -1.79880861	     -1.85896243	     -7.97769561	     -0.00527170	      0.00593875	     -0.00823805	    -23.48171919	      0.52249343	     -3.18785730	     -4.57847488	     31.32657422	     -0.55784081	     62.60223258	     53.80844642	    -19.72329078	      0.00000000	     34.32000000
      2.08000000	     -1.82707321	     -2.24264900	     -8.27915673	     -0.00487417	      0.00572786	     -0.00810411	    -23.54433385	      0.66816487	     -2.73352191	     -4.62056858	     32.14039364	     -0.77985165	     63.21594617	     54.60984558	    -19.66221327	      0.00000000	     34.32000000
      2.09000000	     -1.89276739	     -2.23702949	     -8.25949423	     -0.00492641	      0.00575393	     -0.00829608	    -23.61902596	      0.94375458	     -2.50241108	     -4.52705315	     32.72892813	     -0.98854656	     63.22010010	     55.21273498	    -19.60109053	      0.00000000	     34.32000000
      2.10000000	     -1.80928332	     -2.28730801	     -8.19146319	     -0.00489807	      0.00567347	     -0.00812006	    -23.62007787	      1.49553485	     -2.29706604	     -4.21040199	     33.21640433	     -1.25012729	     63.04579822	     55.86447372	    -19.52405679	      0.00000000	     34.32000000
      2.11000000	     -1.74503455	     -2.12846742	     -8.20131660	     -0.00496644	      0.00568353	     -0.00797809	    -23.72120221	      1.75799789	     -2.27029584	     -4.08938240	     33.58813159	     -1.40316945	     62.42681132	     56.47394667	    -19.43931942	      0.00000000	     34.32000000
